<?xml version="1.0" encoding="UTF-8"?>
<svg width="124px" height="114px" viewBox="0 0 124 114" version="1.1" xmlns="http://www.w3.org/2000/svg" xmlns:xlink="http://www.w3.org/1999/xlink">
    <!-- Generator: Sketch 49 (51002) - http://www.bohemiancoding.com/sketch -->
    <title>2cubes</title>
    <desc>Created with Sketch.</desc>
    <defs>
        <path d="M43.5402679,17.4144522 L19.6737644,26.37813 C17.5280739,27.1825626 16.1052632,29.2511036 16.1052632,31.5494825 L16.1052632,57.417737 C16.1052632,59.5092618 17.2871141,61.4169163 19.1459475,62.3477598 L43.012451,74.29933 C44.5614789,75.0807789 46.3858895,75.0807789 47.9349174,74.29933 L71.8014209,62.3477598 C73.6717286,61.4169163 74.8421053,59.4977699 74.8421053,57.417737 L74.8421053,31.5494825 C74.8421053,29.2511036 73.4192945,27.1940545 71.273604,26.3896219 L47.4071005,17.4259441 C46.1678782,16.9432846 44.7909645,16.9432846 43.5402679,17.4144522 Z M45.4794214,24.5509187 L67.51004,32.8250828 L67.51004,32.9514936 L45.4794214,41.9151713 L23.4488027,32.9514936 L23.4488027,32.8250828 L45.4794214,24.5509187 Z M49.1511911,65.4620632 L49.1511911,48.3506323 L67.51004,40.8809008 L67.51004,56.2685476 L49.1511911,65.4620632 Z" id="path-1"></path>
        <path d="M43.5402679,17.4144522 L19.6737644,26.37813 C17.5280739,27.1825626 16.1052632,29.2511036 16.1052632,31.5494825 L16.1052632,57.417737 C16.1052632,59.5092618 17.2871141,61.4169163 19.1459475,62.3477598 L43.012451,74.29933 C44.5614789,75.0807789 46.3858895,75.0807789 47.9349174,74.29933 L71.8014209,62.3477598 C73.6717286,61.4169163 74.8421053,59.4977699 74.8421053,57.417737 L74.8421053,31.5494825 C74.8421053,29.2511036 73.4192945,27.1940545 71.273604,26.3896219 L47.4071005,17.4259441 C46.1678782,16.9432846 44.7909645,16.9432846 43.5402679,17.4144522 Z M45.4794214,24.5509187 L67.51004,32.8250828 L67.51004,32.9514936 L45.4794214,41.9151713 L23.4488027,32.9514936 L23.4488027,32.8250828 L45.4794214,24.5509187 Z M49.1511911,65.4620632 L49.1511911,48.3506323 L67.51004,40.8809008 L67.51004,56.2685476 L49.1511911,65.4620632 Z" id="path-3"></path>
    </defs>
    <g id="2cubes" stroke="none" stroke-width="1" fill="none" fill-rule="evenodd">
        <g id="cube" transform="translate(-10.000000, 14.000000)">
            <mask id="mask-2" fill="white">
                <use xlink:href="#path-1"></use>
            </mask>
            <use fill="#000000" fill-rule="nonzero" xlink:href="#path-1"></use>
            <rect id="🎨-color" fill="#9B9B9B" fill-rule="evenodd" mask="url(#mask-2)" x="13.2631579" y="13.2708333" width="64.4210526" height="64.4583333"></rect>
        </g>
        <g id="cube" transform="translate(48.000000, 15.000000)">
            <mask id="mask-4" fill="white">
                <use xlink:href="#path-3"></use>
            </mask>
            <use fill="#000000" fill-rule="nonzero" xlink:href="#path-3"></use>
            <rect id="🎨-color" fill="#9B9B9B" fill-rule="evenodd" mask="url(#mask-4)" x="13.2631579" y="13.2708333" width="64.4210526" height="64.4583333"></rect>
        </g>
    </g>
</svg>