<?xml version="1.0" encoding="UTF-8"?>
<svg width="68px" height="68px" viewBox="0 0 68 68" version="1.1" xmlns="http://www.w3.org/2000/svg" xmlns:xlink="http://www.w3.org/1999/xlink">
    <!-- Generator: Sketch 49 (51002) - http://www.bohemiancoding.com/sketch -->
    <title>cubes</title>
    <desc>Created with Sketch.</desc>
    <defs>
        <path d="M62.1664063,33.2976562 L50.46875,28.9140625 L50.46875,15.7753906 C50.46875,13.9589844 49.3425781,12.3363281 47.6351563,11.6945312 L35.5257813,7.15351562 C34.5449219,6.778125 33.4550781,6.778125 32.4621094,7.15351562 L20.3527344,11.6945312 C18.6453125,12.3363281 17.5191406,13.9589844 17.5191406,15.7753906 L17.5191406,28.9140625 L5.82148438,33.2976562 C4.12617188,33.9394531 3,35.5621094 3,37.3785156 L3,50.7109375 C3,52.3578125 3.93242188,53.8714844 5.40976563,54.6101562 L17.5191406,60.6648437 C18.7421875,61.2824219 20.1953125,61.2824219 21.4183594,60.6648437 L34,54.3679687 L46.5816406,60.6648437 C47.8046875,61.2824219 49.2578125,61.2824219 50.4808594,60.6648437 L62.5902344,54.6101562 C64.0675781,53.8714844 65,52.3578125 65,50.7109375 L65,37.3785156 C65,35.5621094 63.8738281,33.9394531 62.1664063,33.2976562 Z M46.3515625,29.0109375 L36.0585938,32.8738281 L36.0585938,24.6152344 L46.3515625,20.1347656 L46.3515625,29.0109375 Z M21.6484375,15.6058594 L34,10.9800781 L46.3515625,15.6058594 L46.3515625,15.6785156 L34,20.6917969 L21.6484375,15.6785156 L21.6484375,15.6058594 Z M31.8203125,50.85625 L21.5273438,56.0027344 L21.5273438,46.4242187 L31.8203125,41.7257813 L31.8203125,50.85625 Z M31.8203125,37.29375 L19.46875,42.3070313 L7.1171875,37.29375 L7.1171875,37.2210938 L19.46875,32.5953125 L31.8203125,37.2210938 L31.8203125,37.29375 Z M60.8828125,50.85625 L50.5898438,56.0027344 L50.5898438,46.4242187 L60.8828125,41.7257813 L60.8828125,50.85625 Z M60.8828125,37.29375 L48.53125,42.3070313 L36.1796875,37.29375 L36.1796875,37.2210938 L48.53125,32.5953125 L60.8828125,37.2210938 L60.8828125,37.29375 Z" id="path-1"></path>
    </defs>
    <g id="cubes" stroke="none" stroke-width="1" fill="none" fill-rule="evenodd">
        <mask id="mask-2" fill="white">
            <use xlink:href="#path-1"></use>
        </mask>
        <use fill="#000000" fill-rule="nonzero" xlink:href="#path-1"></use>
        <rect id="🎨-color" fill="#9B9B9B" mask="url(#mask-2)" x="0" y="0" width="68" height="68"></rect>
    </g>
</svg>