<?xml version="1.0" encoding="UTF-8"?>
<svg width="95px" height="96px" viewBox="0 0 95 96" version="1.1" xmlns="http://www.w3.org/2000/svg" xmlns:xlink="http://www.w3.org/1999/xlink">
    <!-- Generator: Sketch 49 (51002) - http://www.bohemiancoding.com/sketch -->
    <title>cube</title>
    <desc>Created with Sketch.</desc>
    <defs>
        <path d="M45.9591717,18.3712903 L20.7667513,27.8274778 C18.5018558,28.67611 17,30.8583071 17,33.2829705 L17,60.5725577 C17,62.7790015 18.2475093,64.7914721 20.2096113,65.7734608 L45.4020316,78.3817108 C47.0371166,79.2060964 48.9628834,79.2060964 50.5979684,78.3817108 L75.7903887,65.7734608 C77.7646025,64.7914721 79,62.7668782 79,60.5725577 L79,33.2829705 C79,30.8583071 77.4981442,28.6882333 75.2332487,27.8396011 L50.0408283,18.3834136 C48.7327603,17.8742343 47.2793514,17.8742343 45.9591717,18.3712903 Z M48.0060559,25.8998703 L71.2605978,34.6286588 L71.2605978,34.7620152 L48.0060559,44.2182027 L24.751514,34.7620152 L24.751514,34.6286588 L48.0060559,25.8998703 Z M51.8818129,69.0588798 L51.8818129,51.0072604 L71.2605978,43.1271042 L71.2605978,59.360226 L51.8818129,69.0588798 Z" id="path-1"></path>
    </defs>
    <g id="cube" stroke="none" stroke-width="1" fill="none" fill-rule="evenodd">
        <mask id="mask-2" fill="white">
            <use xlink:href="#path-1"></use>
        </mask>
        <use fill="#000000" fill-rule="nonzero" xlink:href="#path-1"></use>
        <rect id="🎨-color" fill="#9B9B9B" mask="url(#mask-2)" x="14" y="14" width="68" height="68"></rect>
    </g>
</svg>