<?xml version="1.0" encoding="iso-8859-1"?>
<!-- Generator: Adobe Illustrator 19.0.0, SVG Export Plug-In . SVG Version: 6.00 Build 0)  -->
<svg version="1.1" id="Capa_1" xmlns="http://www.w3.org/2000/svg" xmlns:xlink="http://www.w3.org/1999/xlink" x="0px" y="0px"
	 viewBox="0 0 512 512" style="enable-background:new 0 0 512 512;" xml:space="preserve">
<polygon style="fill:#FFA230;" points="229.517,0 229.517,317.793 353.103,317.793 512,317.793 512,0 "/>
<polygon style="fill:#FA962A;" points="229.517,317.793 229.517,317.793 353.103,317.793 512,317.793 512,118.908 "/>
<polygon style="fill:#FFA230;" points="229.517,0 229.517,317.793 353.103,317.793 512,317.793 512,0 "/>
<g>
	<rect x="467.862" y="273.655" style="fill:#126099;" width="17.655" height="17.655"/>
	<rect x="432.552" y="273.655" style="fill:#126099;" width="17.655" height="17.655"/>
</g>
<rect x="229.517" style="fill:#FDB62F;" width="282.483" height="97.103"/>
<rect x="335.448" style="fill:#FD7B2F;" width="70.621" height="150.069"/>
<rect x="335.448" y="97.103" style="fill:#F46B27;" width="70.621" height="52.966"/>
<path style="fill:#DE4C3C;" d="M300.138,370.759v114.759c0,14.627-11.855,26.483-26.483,26.483l0,0H26.483
	C11.855,512,0,500.145,0,485.517l0,0V158.897c0-14.627,11.855-26.483,26.483-26.483h247.172c14.627,0,26.483,11.855,26.483,26.483
	v158.897"/>
<path style="fill:#CF4737;" d="M0,471.305v14.212C0,500.145,11.855,512,26.483,512l0,0h247.172
	c14.627,0,26.483-11.855,26.483-26.483l0,0V238.345L0,471.305z"/>
<rect x="35.31" y="167.724" style="fill:#E5E5E5;" width="229.517" height="308.966"/>
<path style="fill:#FDB62F;" d="M176.552,132.414v-17.655c0-14.627-11.855-26.483-26.483-26.483s-26.483,11.855-26.483,26.483v17.655
	h-35.31l-17.655,61.793h158.897l-17.655-61.793H176.552z"/>
<polygon style="fill:#FFA230;" points="78.212,167.724 70.621,194.207 229.517,194.207 221.926,167.724 "/>
<polygon style="fill:#D9D9D9;" points="35.31,442.792 35.31,476.69 264.828,476.69 264.828,264.828 "/>
<rect x="114.759" y="247.172" style="fill:#CFCFCF;" width="114.759" height="17.655"/>
<rect x="61.774" y="238.3" transform="matrix(-0.6001 0.7999 -0.7999 -0.6001 331.8384 328.3655)" style="fill:#4398D1;" width="44.137" height="17.655"/>
<rect x="114.759" y="300.138" style="fill:#CFCFCF;" width="114.759" height="17.655"/>
<rect x="61.775" y="291.259" transform="matrix(-0.6001 0.7999 -0.7999 -0.6001 374.2036 413.1035)" style="fill:#4398D1;" width="44.137" height="17.655"/>
<g>
	<rect x="114.759" y="353.103" style="fill:#CFCFCF;" width="114.759" height="17.655"/>
	<rect x="114.759" y="406.069" style="fill:#CFCFCF;" width="88.276" height="17.655"/>
</g>
<g>
	
		<rect x="61.73" y="344.237" transform="matrix(-0.6001 0.7999 -0.7999 -0.6001 416.508 497.9108)" style="fill:#4398D1;" width="44.137" height="17.655"/>
	
		<rect x="61.767" y="397.204" transform="matrix(-0.6001 0.7999 -0.7999 -0.6001 458.9367 582.6347)" style="fill:#4398D1;" width="44.137" height="17.655"/>
	<polygon style="fill:#4398D1;" points="361.931,256 203.034,414.897 203.034,441.379 229.517,441.379 388.414,282.483 	"/>
</g>
<rect x="343.218" y="263.703" transform="matrix(-0.7071 0.7071 -0.7071 -0.7071 817.5566 226.1912)" style="fill:#3E8CC7;" width="37.429" height="37.429"/>
<g>
</g>
<g>
</g>
<g>
</g>
<g>
</g>
<g>
</g>
<g>
</g>
<g>
</g>
<g>
</g>
<g>
</g>
<g>
</g>
<g>
</g>
<g>
</g>
<g>
</g>
<g>
</g>
<g>
</g>
</svg>
